<svg xmlns="http://www.w3.org/2000/svg" width="193.476" height="217.102" viewBox="0 0 193.476 217.102">
  <g id="Grupo_6" data-name="Grupo 6" transform="translate(-495.104 -369.097)">
    <g id="Grupo_2" data-name="Grupo 2" transform="translate(495.104 369.097)">
      <path id="Trazado_8" data-name="Trazado 8" d="M332.839-428.46c-18.464,3.127-37.375,16.379-45.713,32.163-4.914,9.083-7.892,21.74-7.892,33.056,0,11.912-4.318,25.611-14.89,47.8-5.509,11.912-11.019,24.271-12.061,27.547-2.085,6.7-2.68,26.654-.893,28.44,2.382,2.382,6.4-1.936,12.21-13.252l6.105-11.317,2.382,11.912c3.127,14.741,9.53,28.738,16.826,36.928l5.509,6.1h-20.7c-18.315,0-21.144.3-23.229,2.68-3.127,3.425-3.276,8.339-.149,11.317C252.431-213,263-212.7,344.751-212.7c100.063,0,96.787.3,96.787-8.041,0-7.147-3.723-8.339-25.909-8.339H395.08l5.509-6.1c7.3-8.19,13.7-22.187,16.826-36.928l2.382-11.912,6.105,11.317c5.807,11.317,9.828,15.635,12.21,13.252,1.787-1.787,1.191-21.74-.893-28.44-1.042-3.276-6.552-15.635-12.061-27.547-10.572-22.187-14.89-35.886-14.89-47.8-.149-33.8-22.335-60.008-55.094-65.22C344.3-430.247,344.155-430.247,332.839-428.46Zm-5.509,53.605a35.406,35.406,0,0,1,11.614,6.849l5.807,5.212,5.807-5.212c10.572-9.53,24.569-10.572,35.737-2.531,11.466,8.339,13.7,22.931,5.212,33.652-7.445,9.381-7.3,9.083-5.212,14.295,8.19,19.655,9.53,25.76,9.679,41.4.149,19.357-3.276,29.185-13.7,39.906-8.487,8.636-17.868,13.4-30.972,15.635-8.19,1.489-11.317,1.34-19.655-.893-24.122-6.4-37.077-22.335-38.715-47.947-.745-14.146,2.382-31.716,8.041-42.735,4.616-9.232,4.467-10.721-1.638-18.017-9.083-10.572-8.934-22.633.6-32.163C307.674-375.153,317.055-377.684,327.329-374.855Z" transform="translate(-248.074 429.8)"/>
      <circle id="Elipse_1" data-name="Elipse 1" cx="10.5" cy="10.5" r="10.5" transform="translate(61.896 67.903)" fill="#040809"/>
      <circle id="Elipse_2" data-name="Elipse 2" cx="10.5" cy="10.5" r="10.5" transform="translate(109.896 67.903)" fill="#040809"/>
      <path id="Polígono_1" data-name="Polígono 1" d="M9.038,15.434a10.363,10.363,0,0,1,17.923,0h0A10.363,10.363,0,0,1,18,31h0A10.363,10.363,0,0,1,9.038,15.434Z" transform="translate(114.896 124.903) rotate(180)" fill="#f38c51"/>
    </g>
  </g>
</svg>
